
<!-- Generator: visioncortex VTracer 0.6.4 -->
<svg version="1.1" xmlns="http://www.w3.org/2000/svg" viewBox="0 0 42 51" preserveAspectRatio="xMidYMid meet">
<path d="M0 0 C13.86 0 27.72 0 42 0 C42 16.83 42 33.66 42 51 C28.14 51 14.28 51 0 51 C0 34.17 0 17.34 0 0 Z " fill="#F5F5F5" transform="translate(0,0)"/>
<path d="M0 0 C13.86 0 27.72 0 42 0 C42 16.83 42 33.66 42 51 C28.14 51 14.28 51 0 51 C0 34.17 0 17.34 0 0 Z M7 7 C7 19.87 7 32.74 7 46 C11.29 46 15.58 46 20 46 C20 41.71 20 37.42 20 33 C20.99 33.33 21.98 33.66 23 34 C24.675 37.904 25.758 41.93 27 46 C31.29 46 35.58 46 40 46 C38.913 40.874 37.774 35.941 36 31 C36.485 30.669 36.969 30.337 37.469 29.996 C39.809 26.945 39.513 23.753 39.5 20.062 C39.543 18.988 39.543 18.988 39.586 17.893 C39.6 14.002 39.365 12.37 36.594 9.559 C32.756 7.253 30.82 6.88 26.336 6.902 C25.326 6.905 24.316 6.907 23.275 6.91 C21.988 6.919 20.701 6.928 19.375 6.938 C15.291 6.958 11.207 6.979 7 7 Z " fill="#181818" transform="translate(0,0)"/>
<path d="M0 0 C1.65 0 3.3 0 5 0 C5 2.31 5 4.62 5 7 C3.35 7 1.7 7 0 7 C0 4.69 0 2.38 0 0 Z " fill="#1C1C1C" transform="translate(21,17)"/>
</svg>